<svg width="196" height="28" viewBox="0 0 196 28" fill="none" xmlns="http://www.w3.org/2000/svg">
<path d="M28.3463 10.7195C27.8199 18.4093 21.1582 24.216 13.4683 23.6878C6.51338 23.2109 0.976972 17.6745 0.5 10.7195H5.5559C6.0788 15.6164 10.4722 19.1637 15.3691 18.6408C19.5453 18.1956 22.8452 14.8956 23.2904 10.7195H28.3463Z" fill="#39A1C7"/>
<path d="M48.0523 14.7791C47.1231 17.678 44.8001 19.4092 41.8358 19.4092C38.1013 19.4092 35.2854 16.4697 35.2854 12.5744C35.2854 8.67912 38.1013 5.73956 41.8375 5.73956C44.7365 5.73956 47.0984 7.50612 47.9975 10.3326L48.0205 10.405H51.566L51.5377 10.2779C50.4778 5.5735 46.5755 2.41136 41.8375 2.41136C36.2234 2.41136 31.8247 6.87192 31.8247 12.5673C31.8247 18.2627 36.2234 22.7215 41.8375 22.7215C46.6267 22.7215 50.5361 19.5417 51.566 14.825L51.5943 14.7013H48.0753L48.0523 14.7791Z" fill="black"/>
<path d="M56.4947 2.70107H53.1453V22.4459H56.4947V2.70107Z" fill="black"/>
<path d="M68.3801 15.9715C68.3801 18.2133 67.17 19.5505 65.142 19.5505C63.114 19.5505 61.9039 18.2133 61.9039 15.9715V8.19861H58.5474V16.0845C58.5474 20.1211 61.1337 22.7286 65.135 22.7286C69.1362 22.7286 71.7225 20.1211 71.7225 16.0845V8.19508H68.366L68.3801 15.9715Z" fill="black"/>
<path d="M81.6223 7.91066C79.8292 7.91066 78.2658 8.55369 77.167 9.72492V2.70107H73.8123V22.4459H77.0204V20.7642C78.1121 22.0343 79.732 22.7286 81.6134 22.7286C85.6412 22.7286 88.7963 19.4746 88.7963 15.3214C88.7963 11.1682 85.6483 7.91066 81.6223 7.91066ZM81.2831 11.0622C83.7015 11.0622 85.4557 12.8535 85.4557 15.3214C85.4557 17.7893 83.7015 19.5505 81.2831 19.5505C78.8647 19.5505 77.1387 17.7716 77.1387 15.3214C77.1387 12.8712 78.8806 11.0622 81.2831 11.0622Z" fill="black"/>
<path d="M93.4494 2.70107H90.1V22.4459H93.4494V2.70107Z" fill="black"/>
<path d="M102.238 7.91066C98.0195 7.91066 94.716 11.1664 94.716 15.3302C94.716 19.494 98.0195 22.7374 102.238 22.7374C106.457 22.7374 109.732 19.4834 109.732 15.3302C109.732 11.177 106.441 7.91066 102.238 7.91066ZM102.238 19.5788C99.8196 19.5788 98.0654 17.7875 98.0654 15.3214C98.0654 12.8553 99.8196 11.0622 102.238 11.0622C104.656 11.0622 106.382 12.8535 106.382 15.3214C106.382 17.7893 104.639 19.5788 102.238 19.5788Z" fill="black"/>
<path d="M120.739 15.9715C120.739 18.2133 119.529 19.5505 117.501 19.5505C115.473 19.5505 114.267 18.2133 114.267 15.9715V8.19861H110.91V16.0845C110.91 20.1211 113.496 22.7286 117.498 22.7286C121.499 22.7286 124.089 20.1211 124.089 16.0845V8.19508H120.732L120.739 15.9715Z" fill="black"/>
<path d="M133.416 7.91066C131.764 7.91066 130.346 8.4636 129.385 9.4723V8.19508H126.177V22.4459H129.533V14.6413C129.533 12.4843 130.86 11.0905 132.914 11.0905C134.969 11.0905 136.094 12.4172 136.094 14.6413V22.4459H139.451V14.3568C139.438 10.5022 137.018 7.91066 133.416 7.91066Z" fill="black"/>
<path d="M152.286 9.74612C151.216 8.56076 149.637 7.91066 147.801 7.91066C143.819 7.9142 140.594 11.1399 140.588 15.1218C140.588 19.2485 143.676 22.3647 147.769 22.3647C149.525 22.3647 151.126 21.7163 152.226 20.5751V22.3753C152.226 24.1153 151.389 24.9615 149.667 24.9615H142.63V28H149.585C153.341 28 155.495 25.8978 155.495 22.2339V8.19508H152.286V9.74612ZM148.029 19.2379C145.66 19.2379 143.941 17.5066 143.941 15.1218C143.941 12.7369 145.66 11.0057 148.029 11.0057C150.398 11.0057 152.145 12.7369 152.145 15.1218C152.145 17.5066 150.414 19.2379 148.029 19.2379Z" fill="black"/>
<path d="M167.758 17.6268C167.127 18.9729 165.776 19.7855 164.142 19.7855C161.992 19.7855 160.489 18.5206 160.102 16.3955H171.054L171.069 16.3089C171.116 15.9574 171.136 15.604 171.127 15.249C171.127 11.0092 168.124 7.9248 164.002 7.9248C159.881 7.9248 156.759 11.1806 156.759 15.3444C156.708 19.3845 159.943 22.7003 163.983 22.7515C164.036 22.7515 164.089 22.7515 164.142 22.7515C167.323 22.7639 170.157 20.7412 171.176 17.7274L171.224 17.5914H167.795L167.76 17.6268H167.758ZM160.197 13.8869C160.665 12.0003 162.103 10.8361 163.976 10.8361C165.953 10.8361 167.405 12.0285 167.707 13.8869H160.197Z" fill="black"/>
<path d="M192.359 8.19508L188.473 18.4588L184.523 8.19508H179.864C178.082 8.19508 176.737 8.77628 175.861 9.92631V8.19508H172.648V22.4459H176.004V15.0158C176.004 12.7192 177.179 11.5515 179.497 11.5515H180.931V8.26751L186.636 22.3717L184.357 27.9965H187.89L195.873 8.3364L195.931 8.19508H192.359Z" fill="black"/>
<path d="M21.0716 9.02006C20.6017 8.78158 20.1071 8.59255 19.5983 8.45653C19.54 9.25148 19.3969 10.0394 19.1726 10.8043C19.646 10.9332 20.1053 11.1099 20.5416 11.3343C20.8243 10.5905 21.0027 9.81148 21.0716 9.02006Z" fill="#F8A54A"/>
<path d="M17.4449 5.55937C17.5085 6.22183 17.5279 6.88606 17.5067 7.55028V7.80643C18.1674 7.90006 18.8228 8.03432 19.4676 8.20568C19.4676 8.11912 19.4764 8.02902 19.4782 7.94953C19.5011 7.27647 19.4534 6.60341 19.3351 5.94095C18.7132 5.77842 18.0808 5.65123 17.4449 5.55937Z" fill="#F8A54A"/>
<path d="M19.1973 13.7068C18.851 13.5319 18.4871 13.3923 18.1126 13.2916C17.7558 13.9134 17.3283 14.4929 16.8372 15.0158C17.0898 15.0829 17.3336 15.1748 17.5667 15.2931C18.178 14.8391 18.7274 14.3056 19.1973 13.7068Z" fill="#F8A54A"/>
<path d="M15.1059 5.33325C15.1059 5.93211 15.09 6.59634 15.0688 7.31533V7.57148C15.8444 7.60858 16.604 7.67924 17.3194 7.77994V7.52378C17.3424 6.85956 17.323 6.19533 17.2647 5.53287C16.5757 5.43748 15.8497 5.37035 15.1059 5.33325Z" fill="#F8A54A"/>
<path d="M17.0368 10.3697C17.171 9.58183 17.2594 8.78688 17.3018 7.98839C16.5951 7.88946 15.8285 7.81174 15.0547 7.7817C15.0282 8.58549 14.9911 9.39281 14.9469 10.1772C15.6677 10.2125 16.3726 10.2779 17.0368 10.3697Z" fill="#F8A54A"/>
<path d="M18.0949 13.0902C18.4589 12.4136 18.7539 11.7035 18.9782 10.9703C18.3847 10.8114 17.7805 10.6877 17.1728 10.5994C17.0332 11.3396 16.8478 12.0709 16.6181 12.7899C17.1163 12.8623 17.6091 12.9613 18.0949 13.0902Z" fill="#F8A54A"/>
<path d="M8.88057 13.5919C9.09609 13.41 9.34341 13.2669 9.61016 13.1732C9.19678 12.5143 8.86467 11.8059 8.62619 11.064C8.3029 11.1788 8.00259 11.3519 7.7429 11.5745C8.02202 12.2988 8.40536 12.9772 8.88057 13.5919Z" fill="#F8A54A"/>
<path d="M8.30467 8.47949C8.3241 9.27445 8.44776 10.0623 8.67212 10.8255C9.16675 10.6506 9.67729 10.5181 10.1949 10.4298C10.0359 9.64896 9.95111 8.854 9.94227 8.05552C9.38581 8.15091 8.83817 8.29224 8.30467 8.47949Z" fill="#F8A54A"/>
<path d="M11.2478 15.0264C11.511 14.9345 11.783 14.8639 12.0586 14.8162C11.6399 14.2509 11.2831 13.6396 10.9987 12.9966C10.5888 13.0655 10.1861 13.1697 9.79388 13.3093C10.202 13.9435 10.6895 14.5194 11.2478 15.0264Z" fill="#F8A54A"/>
<path d="M11.2036 7.8771C10.8167 7.91949 10.4528 7.96896 10.1119 8.02549C10.1189 8.82397 10.2002 9.62069 10.3521 10.405C10.6683 10.3503 11.0057 10.3044 11.3679 10.2655C11.7035 10.2302 12.048 10.2037 12.3943 10.1825C12.3307 9.39987 12.3006 8.59255 12.3095 7.78877C11.9367 7.80997 11.5657 7.83823 11.2036 7.8771Z" fill="#F8A54A"/>
<path d="M16.4785 12.7705C16.6976 12.0479 16.8743 11.3131 17.0085 10.5711C16.3514 10.4792 15.6553 10.4156 14.9434 10.3803C14.8992 11.1594 14.848 11.9119 14.7915 12.6132C15.3674 12.6415 15.9397 12.6945 16.4785 12.7705Z" fill="#F8A54A"/>
<path d="M14.5883 14.6801C14.9717 14.6996 15.3462 14.7349 15.7013 14.7844C15.9874 14.1908 16.2295 13.576 16.4238 12.9471C15.8938 12.8747 15.3391 12.8217 14.7703 12.7934C14.712 13.4859 14.6519 14.1325 14.5883 14.6801Z" fill="#F8A54A"/>
<path d="M15.0847 3.4501C15.1006 3.92883 15.1095 4.51003 15.1077 5.16013C15.8444 5.19546 16.5669 5.26259 17.2488 5.35798C17.1905 4.76972 17.0774 4.18675 16.9078 3.61969C16.3266 3.53312 15.7119 3.48189 15.0847 3.4501Z" fill="#F8A54A"/>
<path d="M11.3962 10.4686C11.0428 10.5075 10.7054 10.5534 10.3927 10.6064C10.5482 11.3555 10.7708 12.0886 11.0587 12.797C11.3149 12.7546 11.5887 12.7157 11.882 12.6857C12.1752 12.6556 12.4331 12.6344 12.714 12.6185C12.585 11.9119 12.4826 11.1647 12.4119 10.3874C12.0692 10.4103 11.73 10.4386 11.3962 10.4686Z" fill="#F8A54A"/>
<path d="M12.6893 14.7278C12.8659 14.7102 13.0514 14.6943 13.2369 14.6837C13.0373 14.0671 12.8765 13.4382 12.7564 12.8005C12.4808 12.8146 12.2105 12.8376 11.9438 12.8659C11.677 12.8941 11.3891 12.933 11.14 12.9754C11.4085 13.6184 11.7442 14.2297 12.1416 14.802C12.3112 14.7738 12.4932 14.749 12.6893 14.7278Z" fill="#F8A54A"/>
<path d="M8.56612 10.8679C8.33823 10.1065 8.21281 9.31861 8.19161 8.52366C7.83653 8.64732 7.50972 8.83634 7.22353 9.08013C7.25003 9.86625 7.40019 10.6453 7.66517 11.3855C7.93016 11.1594 8.23577 10.9827 8.56612 10.8679Z" fill="#F8A54A"/>
<path d="M20.1265 4.54713L20.0488 4.5012C20.4462 5.07886 20.7448 5.71836 20.932 6.39318L21.0239 6.44618C21.2783 6.58221 21.4938 6.78006 21.651 7.02208C21.5963 6.84542 21.5344 6.66877 21.4744 6.49211L21.3295 6.18296C21.2624 6.03811 21.19 5.89502 21.114 5.75546L21.0327 5.61413L20.8402 5.29968C20.7607 5.17779 20.6759 5.05237 20.6052 4.94637C20.4727 4.78385 20.3102 4.64782 20.1265 4.54713Z" fill="#F8A54A"/>
<path d="M21.9849 9.33098C21.9849 9.41577 21.9849 9.50764 21.9726 9.58536C22.0167 9.68076 22.0379 9.78499 22.0326 9.89098L22.045 9.6154C22.052 9.21439 22.0309 8.81338 21.9814 8.41413C21.962 8.28164 21.9372 8.12265 21.9054 7.91773C21.8401 7.64745 21.7977 7.47079 21.7641 7.3383L21.7376 7.26587C21.9231 7.93716 22.0061 8.63495 21.9849 9.33098Z" fill="#F8A54A"/>
<path d="M21.5627 6.72177L21.5468 6.6829C21.568 6.7412 21.5892 6.79773 21.6086 6.85956L21.5627 6.72177Z" fill="#F8A54A"/>
<path d="M18.2999 2.86889L18.2787 2.85653L17.989 2.69224C17.8123 2.60568 17.6056 2.50675 17.4413 2.43255L17.0951 2.29653C17.0138 2.2665 16.9184 2.23293 16.7418 2.17817L16.6216 2.14284C16.9273 2.23823 17.2152 2.37779 17.4802 2.55798C17.7628 2.63217 18.0384 2.7364 18.2999 2.86889Z" fill="#F8A54A"/>
<path d="M19.9463 4.35634L20.0223 4.40227C20.1954 4.49943 20.3508 4.62839 20.478 4.78031L20.3279 4.59306C20.1265 4.36517 20.0046 4.22738 19.9021 4.11962C19.7997 4.01186 19.6672 3.8935 19.4534 3.69388C19.252 3.52959 19.1196 3.42183 19.0012 3.33173L18.6479 3.08442L18.5348 3.01199L18.5013 2.99079C19.0595 3.35647 19.5488 3.8193 19.9463 4.35634Z" fill="#F8A54A"/>
<path d="M8.3506 4.99407C8.22164 5.17072 8.09622 5.35975 7.99729 5.52404C7.85773 5.77842 7.7694 5.93918 7.70581 6.0646C7.64221 6.19003 7.56625 6.35962 7.44612 6.62814L7.41609 6.71823C7.46732 6.62284 7.52562 6.53274 7.59275 6.44795C7.78354 5.93388 8.03792 5.44454 8.3506 4.99407Z" fill="#F8A54A"/>
<path d="M7.61748 11.4332C7.34896 10.6965 7.1988 9.92101 7.17054 9.13666C7.04158 9.25678 6.95855 9.41754 6.93205 9.59243V9.80972C6.94619 10.0199 6.97268 10.2637 6.99212 10.4545C7.04688 10.7601 7.13167 11.1611 7.21117 11.4756C7.26593 11.6628 7.32776 11.8466 7.39842 12.0285C7.36486 11.8059 7.44789 11.5816 7.61748 11.4332Z" fill="#F8A54A"/>
<path d="M21.9567 9.79382C21.8825 10.5729 21.6828 11.3343 21.3649 12.0479C21.4338 12.1893 21.4391 12.3536 21.3808 12.5002L21.5574 12.0886C21.651 11.8095 21.7111 11.6328 21.7535 11.495C21.7959 11.3572 21.8348 11.1753 21.9037 10.8873C21.9319 10.7107 21.9531 10.5764 21.9708 10.4651C21.9885 10.3538 22.0026 10.2196 22.0185 10.1118C22.0256 10.0023 22.0044 9.89274 21.9567 9.79382Z" fill="#F8A54A"/>
<path d="M18.397 2.92189L18.3794 2.91306L18.4023 2.92543L18.397 2.92189Z" fill="#F8A54A"/>
<path d="M21.2801 12.2299C20.948 12.9259 20.5116 13.5672 19.9869 14.1325C20.0629 14.2915 20.0435 14.4787 19.9375 14.6201C20.13 14.4257 20.3102 14.2208 20.4798 14.0053C20.6565 13.7633 20.8667 13.4506 21.0186 13.2068C21.1705 12.963 21.2324 12.8076 21.296 12.6857C21.356 12.5391 21.3507 12.373 21.2801 12.2299Z" fill="#F8A54A"/>
<path d="M17.4042 2.53501C17.1251 2.34069 16.8177 2.19583 16.4909 2.10221H16.4679L16.2224 2.03508L16.0051 1.98738L15.7949 1.94322L15.6182 1.91319C15.8938 1.96618 16.1464 2.10574 16.3355 2.31419C16.6958 2.36719 17.0527 2.44139 17.4042 2.53501Z" fill="#F8A54A"/>
<path d="M8.68625 4.54713L8.67565 4.5595L8.63148 4.61426L8.68625 4.54713Z" fill="#F8A54A"/>
<path d="M8.81697 4.39344L8.80284 4.41641L8.81874 4.39697V4.39344H8.81697Z" fill="#F8A54A"/>
<path d="M12.1699 2.33716C12.4243 2.17464 12.7052 2.05451 13.0002 1.98385C12.6804 2.04744 12.3642 2.13224 12.0551 2.23647L11.8961 2.29123L11.6293 2.39722C11.5074 2.45022 11.3873 2.50852 11.276 2.57388C11.5675 2.46965 11.8661 2.39016 12.1699 2.33716Z" fill="#F8A54A"/>
<path d="M13.5849 2.18523C14.0107 2.16404 14.447 2.16404 14.8745 2.18523C14.8551 1.96265 14.8286 1.84252 14.7986 1.84076H14.1237C13.9011 1.87079 13.705 1.99621 13.5849 2.18523Z" fill="#F8A54A"/>
<path d="M12.8659 2.24C13.0656 2.2188 13.2687 2.20113 13.4754 2.19054C13.6114 1.99798 13.8216 1.86902 14.0566 1.83722H14.0177L13.6874 1.86549C13.4842 1.89022 13.2917 1.91848 13.0956 1.95558C12.7988 2.02271 12.5179 2.14107 12.2635 2.3089C12.449 2.29653 12.6504 2.26296 12.8659 2.24Z" fill="#F8A54A"/>
<path d="M14.9858 2.187C15.4115 2.20643 15.8302 2.2453 16.2224 2.30006C16.0457 2.09161 15.802 1.95205 15.5334 1.90435L15.4204 1.89022L15.2437 1.87079L15.0671 1.85489H14.8409C14.9045 1.84429 14.9487 1.96265 14.9858 2.187Z" fill="#F8A54A"/>
<path d="M9.62076 3.91823C10.0218 3.42183 10.5093 3.00315 11.0605 2.68164C10.9651 2.71874 10.8715 2.76114 10.7814 2.80883L10.6418 2.88833C10.3698 3.06498 10.2143 3.16215 10.0659 3.26814C9.94934 3.35293 9.81332 3.46246 9.5925 3.63558C9.37168 3.83874 9.23918 3.9624 9.12789 4.06662C9.0166 4.17085 8.93887 4.26448 8.85054 4.36694C9.07666 4.17085 9.33811 4.01893 9.62076 3.91823Z" fill="#F8A54A"/>
<path d="M16.8672 3.49249C16.7418 3.08618 16.5439 2.70461 16.2842 2.36896C15.8744 2.31243 15.4398 2.2718 14.9946 2.24883C15.0317 2.50145 15.06 2.86536 15.0794 3.3282C15.6924 3.35647 16.2984 3.41476 16.8672 3.49249Z" fill="#F8A54A"/>
<path d="M18.6956 3.86524C19.1001 3.973 19.4941 4.12316 19.8686 4.31218C19.4817 3.78044 19.003 3.3229 18.4553 2.95899C18.185 2.82297 17.9024 2.71521 17.6109 2.63571C18.049 2.96959 18.4182 3.38827 18.6956 3.86524Z" fill="#F8A54A"/>
<path d="M19.4358 5.80315C19.9198 5.93035 20.3897 6.10877 20.8384 6.33312C20.6547 5.66006 20.3597 5.0241 19.9657 4.4482C19.5842 4.25388 19.1832 4.10195 18.7698 3.99066C19.0825 4.55773 19.3068 5.16896 19.4358 5.80315Z" fill="#F8A54A"/>
<path d="M18.5719 3.83167C18.3034 3.35823 17.943 2.94486 17.512 2.61274C17.1463 2.51558 16.7736 2.43962 16.3991 2.38486C16.6764 2.71874 16.8866 3.10208 17.0227 3.51369C17.5456 3.58965 18.0614 3.69565 18.5719 3.83167Z" fill="#F8A54A"/>
<path d="M19.6213 7.99193C19.6213 8.07672 19.6177 8.16152 19.6107 8.24631C20.1212 8.3841 20.6158 8.57312 21.0875 8.81161C21.0875 8.72682 21.0875 8.63495 21.0981 8.55546C21.1211 7.8718 21.0504 7.18814 20.8879 6.52391C20.4374 6.29426 19.964 6.11407 19.4746 5.98158C19.5965 6.64404 19.646 7.31887 19.6213 7.99193Z" fill="#F8A54A"/>
<path d="M13.0196 3.44833C12.8677 4.00833 12.7582 4.58069 12.6893 5.15659C13.4277 5.12126 14.1802 5.12126 14.9204 5.15659C14.9293 4.5012 14.931 3.92 14.9204 3.44833C14.2898 3.41653 13.6485 3.4183 13.0196 3.44833Z" fill="#F8A54A"/>
<path d="M21.2695 9.13136L21.1723 9.07483C21.1034 9.86448 20.925 10.64 20.6423 11.3802L20.7324 11.4332C20.9815 11.5639 21.1935 11.7565 21.3454 11.9932C21.6634 11.2777 21.8613 10.5146 21.9355 9.73552C21.7694 9.47937 21.5397 9.27268 21.2695 9.13136Z" fill="#F8A54A"/>
<path d="M21.1882 8.86637L21.2854 8.9229C21.5521 9.06599 21.78 9.27445 21.9443 9.52883C21.9443 9.44404 21.9443 9.35218 21.9549 9.27268C21.9761 8.57666 21.8931 7.8824 21.7093 7.2111C21.5521 6.96732 21.3348 6.7677 21.0787 6.63167L20.985 6.57691C21.1511 7.24114 21.2235 7.92656 21.2006 8.61199C21.197 8.69678 21.1935 8.78158 21.1882 8.86637Z" fill="#F8A54A"/>
<path d="M20.6494 11.6222L20.5611 11.5692C20.2643 12.29 19.8756 12.9683 19.4022 13.5884L19.4746 13.6308C19.676 13.7386 19.8474 13.8958 19.971 14.0866C20.4939 13.5177 20.9267 12.8747 21.2589 12.1769C21.1069 11.9437 20.8967 11.7529 20.6494 11.6222Z" fill="#F8A54A"/>
<path d="M21.7129 7.15634L21.621 6.88959C21.6422 6.94965 21.6634 7.01148 21.6811 7.06625C21.6934 7.09628 21.704 7.12631 21.7129 7.15634Z" fill="#F8A54A"/>
<path d="M9.50947 4.06309C9.22152 4.16379 8.95477 4.31571 8.72335 4.51356C8.26051 5.08063 7.89483 5.72013 7.64221 6.40732C7.9125 6.17413 8.22518 5.99571 8.56259 5.87735C8.77634 5.22549 9.09609 4.61249 9.50947 4.06309Z" fill="#F8A54A"/>
<path d="M6.93028 9.36278C6.95855 9.19319 7.04158 9.03773 7.16523 8.91937V8.66499C7.18113 7.97249 7.29949 7.2853 7.51855 6.62637C7.45318 6.6935 7.39665 6.77123 7.35426 6.85426L7.26593 7.10865C7.1988 7.34183 7.1299 7.60858 7.07514 7.81527C7.02214 8.13148 6.98858 8.32757 6.96738 8.4848C6.94618 8.64202 6.93735 8.83811 6.91438 9.16492C6.92852 9.24442 6.92852 9.30801 6.93028 9.36278Z" fill="#F8A54A"/>
<path d="M7.21294 8.87167C7.49912 8.62789 7.8277 8.44063 8.18278 8.3152V8.05905C8.20044 7.37716 8.3082 6.70057 8.50253 6.04694C8.16335 6.1653 7.8489 6.34549 7.57332 6.57691C7.35603 7.23407 7.2359 7.9195 7.22 8.61199C7.21294 8.70208 7.21294 8.78688 7.21294 8.87167Z" fill="#F8A54A"/>
<path d="M18.0031 15.6765C18.0526 15.7807 18.0402 15.9044 17.9713 15.9962C18.6444 15.6818 19.2609 15.2596 19.7997 14.749C19.9039 14.613 19.9216 14.4293 19.8474 14.2756C19.305 14.832 18.6832 15.3037 18.0031 15.6765Z" fill="#F8A54A"/>
<path d="M14.9187 3.32114C14.9187 2.86006 14.8992 2.49615 14.8798 2.24353C14.4346 2.22587 13.9824 2.22587 13.5372 2.24353C13.3217 2.57565 13.1609 2.93956 13.0567 3.32114C13.6732 3.29464 14.3004 3.29464 14.9187 3.32114Z" fill="#F8A54A"/>
<path d="M11.3767 2.50675L11.0499 2.66221C11.0976 2.63924 11.1488 2.61628 11.2036 2.59508L11.3767 2.50675Z" fill="#F8A54A"/>
<path d="M12.0657 2.40782C11.7459 2.46082 11.4315 2.54208 11.1259 2.64984C10.5835 2.97135 10.1048 3.3918 9.71262 3.88643C10.1366 3.73628 10.5712 3.62322 11.0146 3.54902C11.2849 3.10208 11.6417 2.71344 12.0657 2.40782Z" fill="#F8A54A"/>
<path d="M10.2373 5.42158C10.3892 4.80858 10.6277 4.22031 10.9439 3.67268C10.4917 3.75218 10.0483 3.87053 9.61546 4.02599C9.20562 4.57186 8.8894 5.18132 8.67741 5.82965C9.18442 5.64946 9.70732 5.51344 10.2373 5.42158Z" fill="#F8A54A"/>
<path d="M12.6628 5.32972C12.5903 5.93035 12.5427 6.59281 12.5215 7.3118V7.56795C13.2987 7.53085 14.0884 7.52909 14.8657 7.56795V7.3118C14.8869 6.59281 14.901 5.92858 14.9098 5.32972C14.1661 5.29969 13.4083 5.29969 12.6628 5.32972Z" fill="#F8A54A"/>
<path d="M8.96713 13.7898C8.83463 13.9064 8.7675 14.0813 8.79047 14.2562C9.3063 14.8162 9.90517 15.2931 10.5659 15.6694C10.5482 15.5528 10.5906 15.4344 10.6789 15.355C10.0377 14.9168 9.46 14.3904 8.96713 13.7898Z" fill="#F8A54A"/>
<path d="M7.68814 11.6222C7.52385 11.7688 7.44436 11.9879 7.47615 12.2069C7.7694 12.9012 8.17218 13.5442 8.66682 14.1113C8.64032 13.9329 8.70745 13.7509 8.84347 13.6326C8.36297 13.0231 7.97256 12.3447 7.68814 11.6222Z" fill="#F8A54A"/>
<path d="M9.71792 13.3411C9.46 13.4329 9.21975 13.5725 9.01129 13.7509C9.5024 14.3533 10.0765 14.8833 10.7178 15.3232C10.8591 15.203 11.0216 15.1112 11.1965 15.0493C10.6312 14.5459 10.1348 13.9717 9.71792 13.3411Z" fill="#F8A54A"/>
<path d="M10.8556 15.4609C10.7726 15.5369 10.7319 15.65 10.7478 15.7613C11.4421 16.1305 12.1893 16.3884 12.9631 16.5279C12.9578 16.4873 12.9719 16.4467 13.0037 16.4184C12.2441 16.21 11.5198 15.8867 10.8556 15.4609Z" fill="#F8A54A"/>
<path d="M10.8821 15.4362C11.5392 15.8655 12.2582 16.1941 13.0126 16.4096C13.0638 16.3654 13.1238 16.3319 13.1892 16.3124C12.5179 16.0298 11.8926 15.6464 11.3379 15.1748C11.1718 15.2331 11.0163 15.3214 10.8821 15.4362Z" fill="#F8A54A"/>
<path d="M8.30643 8.01666V8.27104C8.83994 8.08202 9.38757 7.94069 9.9458 7.84706V7.59091C9.9617 6.91962 10.0447 6.25186 10.1931 5.59823C9.65962 5.68833 9.13495 5.82612 8.62618 6.00631C8.43363 6.65994 8.32587 7.33476 8.30643 8.01666Z" fill="#F8A54A"/>
<path d="M14.4876 14.6766C14.5336 14.1184 14.5777 13.4806 14.6201 12.7881C14.0495 12.7634 13.4683 12.7652 12.8977 12.7881C13.0055 13.4259 13.1503 14.0583 13.3305 14.6801C13.7139 14.6625 14.1025 14.6625 14.4876 14.6766Z" fill="#F8A54A"/>
<path d="M14.7508 10.3715C14.0442 10.3415 13.3111 10.3432 12.5974 10.3715C12.6592 11.1505 12.7511 11.9031 12.8677 12.6044C13.4507 12.5762 14.046 12.5762 14.6343 12.6044C14.6749 11.9049 14.7138 11.1505 14.7508 10.3715Z" fill="#F8A54A"/>
<path d="M11.9597 3.53312C11.6452 3.56669 11.3485 3.60732 11.0764 3.65502C10.7708 4.20088 10.5394 4.78562 10.3927 5.39331C10.7178 5.33855 11.064 5.29085 11.4333 5.25199C11.7795 5.21489 12.1328 5.18663 12.4932 5.16719C12.5709 4.58776 12.6963 4.01539 12.8659 3.45539C12.5533 3.47306 12.2529 3.49779 11.9597 3.53312Z" fill="#F8A54A"/>
<path d="M12.1593 14.9539C11.8961 14.9999 11.6382 15.0652 11.3873 15.1536C11.9297 15.6288 12.5409 16.0156 13.2016 16.3036C13.2934 16.2718 13.3888 16.2471 13.486 16.2312C12.9808 15.8761 12.5338 15.445 12.1593 14.9539Z" fill="#F8A54A"/>
<path d="M10.1172 7.56088V7.81704C10.4581 7.75874 10.8238 7.70928 11.2107 7.66688C11.5746 7.62978 11.9438 7.59975 12.3183 7.57855V7.3224C12.3395 6.60341 12.3907 5.93918 12.4685 5.34032C12.1151 5.35975 11.7618 5.38978 11.4085 5.42511C11.0552 5.46044 10.686 5.51344 10.3592 5.5682C10.2161 6.2236 10.1348 6.88959 10.1172 7.56088Z" fill="#F8A54A"/>
<path d="M15.5794 16.5333C15.597 16.5703 15.5935 16.6127 15.5688 16.6463C16.3355 16.5756 17.0862 16.3831 17.7929 16.0757C17.8582 15.9874 17.8706 15.8708 17.8247 15.7701C17.1198 16.1358 16.362 16.3937 15.5794 16.5333Z" fill="#F8A54A"/>
<path d="M17.8123 15.7454C17.7346 15.6252 17.6286 15.5281 17.5032 15.4609L17.459 15.4344C16.8425 15.8602 16.1641 16.187 15.4469 16.4078L15.4645 16.4184C15.5105 16.4432 15.5493 16.4785 15.5776 16.5226C16.3567 16.3778 17.111 16.1163 17.8123 15.7454Z" fill="#F8A54A"/>
<path d="M19.8262 14.2332C19.7061 14.0459 19.54 13.8922 19.3439 13.788L19.2715 13.7474C18.7927 14.3445 18.2363 14.8727 17.6162 15.3214L17.6639 15.3497C17.7964 15.4203 17.9077 15.5228 17.989 15.6482C18.6673 15.2684 19.2856 14.7914 19.8262 14.2332Z" fill="#F8A54A"/>
<path d="M16.6411 15.1235C16.3372 15.0423 16.0298 14.9787 15.7189 14.9345C15.4751 15.4026 15.1695 15.8372 14.8092 16.2241C14.924 16.24 15.0388 16.263 15.1501 16.293C15.7048 15.9821 16.2065 15.5881 16.6411 15.1235Z" fill="#F8A54A"/>
<path d="M12.7582 14.8692C12.5815 14.8904 12.4049 14.9133 12.2423 14.9398C12.5992 15.4309 13.0285 15.8637 13.516 16.2259C13.5761 16.2153 13.6379 16.2064 13.7068 16.1994C13.7757 16.1923 13.834 16.187 13.8994 16.1835C13.6414 15.7577 13.433 15.302 13.2775 14.8285C13.1026 14.8391 12.9278 14.8515 12.7582 14.8692Z" fill="#F8A54A"/>
<path d="M16.7135 15.143C16.2595 15.6058 15.7366 15.9962 15.1625 16.3001C15.2508 16.3248 15.3373 16.3566 15.4186 16.399C16.1252 16.1711 16.7948 15.8372 17.4007 15.408C17.1816 15.2967 16.9502 15.2083 16.7135 15.143Z" fill="#F8A54A"/>
<path d="M14.5724 14.825C14.5088 15.3673 14.4435 15.8284 14.3781 16.1817C14.5124 16.1817 14.6449 16.2011 14.7685 16.2188C15.1112 15.8266 15.4009 15.3903 15.6306 14.9221C15.2932 14.8762 14.9363 14.8391 14.5724 14.825Z" fill="#F8A54A"/>
<path d="M13.3729 14.8232C13.5107 15.2949 13.6997 15.7507 13.9347 16.1817C14.0707 16.1746 14.2067 16.1746 14.3428 16.1817C14.3869 15.8284 14.4311 15.3638 14.477 14.8197C14.1114 14.8056 13.7386 14.8056 13.3729 14.8232Z" fill="#F8A54A"/>
<path d="M6.57874 12.1716L6.53634 12.3129C6.50984 12.3942 6.54694 12.4843 6.6229 12.5232L6.75186 12.5938L6.6123 12.5514C6.53104 12.5249 6.44095 12.562 6.40208 12.638L6.32966 12.7669L6.37205 12.6256C6.39855 12.5444 6.36145 12.4543 6.28549 12.4154L6.15653 12.3447L6.29786 12.3871C6.37912 12.4119 6.46745 12.3765 6.50631 12.3006L6.57874 12.1716Z" fill="#F8A54A"/>
<path d="M24.7355 8.10498L24.5994 8.56429C24.5199 8.82927 24.6365 9.11546 24.8785 9.24795L25.299 9.4776L24.8397 9.34158C24.5747 9.26208 24.2885 9.37868 24.156 9.62246L23.9246 10.0429L24.0624 9.5836C24.1401 9.31685 24.0235 9.03243 23.7797 8.89994L23.3611 8.67028L23.8204 8.80631C24.0854 8.88404 24.3698 8.76744 24.504 8.52543L24.7355 8.10498Z" fill="#F8A54A"/>
<path d="M22.711 2.16404L22.5008 2.87066C22.3753 3.28227 22.5573 3.72391 22.9336 3.9306L23.5819 4.28391L22.8753 4.07369C22.4637 3.94827 22.022 4.12846 21.8153 4.5065L21.462 5.15306L21.6722 4.44644C21.7977 4.03483 21.6157 3.59319 21.2394 3.3865L20.5929 3.03319L21.2995 3.24518C21.7111 3.36883 22.1527 3.18688 22.3594 2.8106L22.711 2.16404Z" fill="#F8A54A"/>
<path d="M7.96549 2.08807L7.8277 2.54738C7.74997 2.81236 7.86656 3.09678 8.10858 3.23104L8.52902 3.46069L8.06971 3.32467C7.80473 3.24694 7.52208 3.36353 7.38959 3.60555L7.15994 4.02599L7.29596 3.56669C7.37546 3.3017 7.25886 3.01552 7.01508 2.88303L6.5911 2.64984L7.05041 2.78763C7.31893 2.87243 7.60864 2.75407 7.7429 2.50852L7.96549 2.08807Z" fill="#F8A54A"/>
<path d="M10.05 0.388645L9.91401 0.847951C9.83451 1.11294 9.9511 1.39912 10.1949 1.53161L10.6153 1.76656L10.156 1.62877C9.89104 1.54928 9.60486 1.66587 9.47237 1.90965L9.24271 2.3301L9.37874 1.87079C9.45823 1.60404 9.34164 1.31786 9.09786 1.1836L8.67741 0.953945L9.13672 1.08997C9.4017 1.16947 9.68789 1.05287 9.82038 0.809087L10.05 0.388645Z" fill="#F8A54A"/>
<path d="M14.1149 5.6L14.0107 5.94448C13.9524 6.1441 14.0407 6.35962 14.2226 6.46031L14.5389 6.63697L14.1855 6.53274C13.9859 6.47268 13.7704 6.56101 13.6697 6.74473L13.4931 7.06094L13.5955 6.70763C13.6538 6.51154 13.5726 6.30132 13.3959 6.19886L13.0797 6.02221L13.433 6.12643C13.6326 6.1865 13.8481 6.09817 13.9488 5.91445L14.1149 5.6Z" fill="black"/>
<path d="M11.6064 8.25691L11.5039 8.61022C11.4439 8.80984 11.5322 9.02536 11.7159 9.12606L12.0321 9.30271L11.6788 9.20025C11.4792 9.14019 11.2637 9.22852 11.163 9.41224L10.9863 9.72845L11.0905 9.37514C11.1488 9.17552 11.0605 8.96 10.8786 8.85931L10.5606 8.68265L10.9139 8.78511C11.1135 8.84517 11.329 8.75684 11.4297 8.57312L11.6064 8.25691Z" fill="black"/>
<path d="M14.1962 2.26297L14.1485 2.42372C14.1202 2.51735 14.1608 2.61628 14.2456 2.66398L14.3922 2.74524L14.2333 2.69577C14.1396 2.66928 14.0407 2.70991 13.993 2.7947L13.9117 2.94133L13.9594 2.78057C13.9877 2.68871 13.9471 2.58801 13.8623 2.54208L13.7139 2.46082L13.8746 2.50852C13.9683 2.53678 14.0672 2.49615 14.1149 2.41136L14.1962 2.26297Z" fill="black"/>
<path d="M14.0283 0L13.9471 0.268517C13.9029 0.425741 13.9718 0.591798 14.1131 0.671293L14.3587 0.805552L14.0902 0.726057C13.9365 0.680126 13.7704 0.745489 13.6874 0.883281L13.5531 1.1306L13.6326 0.860315C13.6803 0.704858 13.6114 0.537035 13.4683 0.459306L13.2192 0.332114L13.4895 0.411609C13.645 0.454006 13.811 0.386877 13.8905 0.245552L14.0283 0Z" fill="#F8A54A"/>
<path d="M14.8091 16.429L14.6714 16.8883C14.5936 17.1551 14.7102 17.4395 14.954 17.572L15.3727 17.8016L14.9151 17.6656C14.6484 17.5861 14.364 17.7045 14.2297 17.9465L14.0001 18.3722L14.1361 17.9129C14.2191 17.6462 14.1008 17.3565 13.8552 17.224L13.4348 16.9943L13.8941 17.1303C14.1591 17.2098 14.4452 17.0933 14.5777 16.8495L14.8091 16.429Z" fill="#F8A54A"/>
<path d="M5.16019 7.45489L5.0224 7.9142C4.94467 8.17918 5.06126 8.4636 5.30328 8.59786L5.72372 8.83281L5.26972 8.69148C5.00473 8.61199 4.71855 8.72858 4.58606 8.97237L4.3564 9.39281L4.49243 8.9335C4.57192 8.66675 4.45356 8.38234 4.20978 8.24984L3.7858 8.01842L4.24511 8.15622C4.51009 8.23571 4.79628 8.11912 4.92877 7.87533L5.16019 7.45489Z" fill="#F8A54A"/>
<path d="M5.90744 5.6636L5.83855 5.89148C5.79968 6.02398 5.85621 6.1653 5.97634 6.23243L6.18656 6.34549L5.9569 6.27836C5.82441 6.2395 5.68485 6.29779 5.61773 6.41792L5.5029 6.62637L5.57179 6.39849C5.61066 6.26599 5.55236 6.12467 5.43047 6.05931L5.22202 5.94448L5.44637 6.00631C5.58063 6.05401 5.73079 5.99748 5.79968 5.87205L5.90744 5.6636Z" fill="#F8A54A"/>
</svg>
