<?xml version="1.0" encoding="UTF-8"?>
<svg version="1.1" viewBox="0 0 1572 1384" width="343" height="300" xmlns="http://www.w3.org/2000/svg">
    <path transform="translate(0)" d="m0 0h1772v1384h-1772z" fill="#5c3a3e"/>

    <path transform="translate(484,507)"
          d="m0 0h6l3 4-1 7-7 6-9 11-7 11-4 10-1 4v15l4 16 5 9 3 5-1 5-15 15-10 15-4 11v12l5 17 8 15 2 3-1 5-6 3-13 1-16 4-11 7-8 10-5 11-2 6-1 8v14l3 15 6 18v7l-5 10-4 16-1 7v23l3 17 4 12 6 11 9 10 8 7 16 8 15 5 19 3 13 1 3 3v24l4 20 8 16 7 9 9 8 8 5 12 4 5 1h26l18-3 21-6 14-5h4l9 20 8 11 11 10 14 8 18 6 16 2 16-1 15-4 16-7 10-7 10-8 3-1 16 14 15 9 15 6 13 3h25l15-4 12-6 8-6 11-11 1-2h5l6 5v2l4 2 8 6 14 6 14 3h28l20-4 13-5 11-7 7-7 4-7 6-11 8 1 14 2h10l16-3 12-5 14-9 5-4 8-10 5-11 2-7v-25l3-3 20-3 13-4 12-6 11-9 7-8 6-12 4-13 1-7v-14l-3-15-5-12-1-3 4-8 8-13 5-11 5-15 1-6v-12l-3-14-4-10-9-13-7-8-11-8-9-6-2-2 1-5 9-14 4-8 4-12 1-6v-18l-4-12-6-8-11-7-8-4-2-5 3-5 10-7 5-10 1-4v-20l-4-12-8-15-11-13-10-10 2-6 4-3 5 1 8 7 7 7 10 15 8 17 3 17v11l-2 12-7 14-1 4 7 5v2h2l7 11 4 9 2 12-1 19-4 16-8 17-1 3 4 4 8 7 5 4 10 14 8 16 4 17 1 16-3 16-6 16-8 15-4 5 1 7 4 12 1 8v23l-4 16-5 12-7 11-6 7-10 8-10 6-18 6-13 3h-3l1 9-3 17-4 10-6 9-9 10-11 9-19 9-15 4-6 1h-25l-4-1-2 6-9 10-9 8-16 8-13 4-16 3-9 1h-16l-15-2-17-5-10-5-11-8-4 2-4 5-10 7-11 5-14 4-14 2h-12l-17-2-17-5-21-11-13-11-8 7-14 8-19 7-12 2h-23l-16-3-17-6-13-7-10-8-10-11-8-13-2-5-11 3-19 5-11 2-13 1h-12l-17-2-13-4-13-7-12-11-8-10-7-15-4-15-2-21v-6l-25-4-16-5-16-8-10-7-10-10-9-14-7-21-2-12v-32l3-17 5-15-1-8-5-18-1-6v-25l3-14 5-12 8-11 9-7 14-7 16-5-1-5-5-15-1-6v-18l4-13 7-12 9-11 5-5-1-7-4-10-2-11v-23l4-13 5-10 9-12 12-12z"
          fill="#FCFCFC"/>
    <path transform="translate(265,778)"
          d="m0 0h32l20 4 17 6 9 5 3 3-1 5-5 4-5-1-10-5-16-5-9-2-11-1h-20l-17 3-13 5-11 6-11 9-10 10-10 14-2 3-24-1-17 2-17 6-12 7-14 14-8 14-5 15-2 13v12l2 17 5 21 4 9v6l-14 13-8 13-5 14-1 6v25l5 19 7 14 9 11 13 9 14 6 5 1 1 6-1 8v9l3 16 6 12 7 7 11 6 14 3 7 1h26l15-3 13-5 5-2 5 1 8 16 7 9 9 8 14 7 13 3h21l13-3 14-7 10-10 6-9 6-17 3-4 26-1 16-4 12-6 6-5 6-10 4-13 1-7v-14l-2-14-7-21 1-5 16-6 8-6 7-11 7-18h7l3 2v11l-5 13-6 9-5 6-14 9h-3l3 7 4 23v15l-3 16-4 11-6 10-9 9-16 8-16 4-9 1h-15l1 5-8 15-9 11-8 7-9 5-10 4-13 3-13 1-14-1-19-5-12-6-10-8-8-9-7-11-7 1-18 4h-29l-16-2-15-4-11-6-8-7-7-11-4-12-2-13v-9l1-6-6-2-14-8-9-7-7-7-9-14-6-15-3-14-1-10v-13l2-15 4-13 7-14 9-11 4-3-3-15-3-12-2-17v-20l3-18 5-13 8-15 13-14 11-8 14-7 17-5 14-2h17 3l8-11 11-11 13-10 17-9 21-6z"
          fill="#FCFCFC"/>
    <path transform="translate(1308,808)"
          d="m0 0h13l17 2 16 5 16 8 10 7 10 9 9 11 10 17 2 6 23 2 16 5 12 6 10 9 4 5 6 10 6 16 4 20v25l-2 9 1 5 10 9 9 10 8 13 6 12 4 12 2 12v21l-3 16-5 13-6 12-8 10-10 10-14 8-11 4-13 2v25l-3 15-8 16-9 10-14 9-16 6-16 4-13 2h-25l-16-3-12-4-1-2-4 1-14 6-24 7-14 3-18 2h-22l-18-3-13-5-11-6-12-11-9-14-5-12-2-10v-19l-1-1-23-3-16-5-13-7-6-5-7-10-4-11-2-12v-18l2-15 4-8h6l3 3 1 6-2 9v26l4 13 6 8 6 5 14 6 15 3h26l3 5-1 8-1 4v17l2 9 7 14 9 10 11 8 15 6 13 2h17l22-3 24-6 31-11 10 4 13 4 6 1h30l21-5 15-6 10-7h2l2-4 4-5 6-13 1-5v-24l-2-6 1-8 3-3 16-1 13-4 11-6 10-9 7-10 6-12 5-17 1-8v-14l-3-14-5-12-7-12-8-10-12-12-6-5 1-9 2-14v-18l-4-20-6-15-7-10-9-8-11-5-14-3h-13l-11 1-4-6-5-12-6-11-7-9-4-5-13-10-10-6-16-6-13-2h-27l-19 3-3-5 1-6 8-3 11-2z"
          fill="#FCFCFC"/>
    <path transform="translate(439,322)"
          d="m0 0h26l18 4 16 6 10 5 2 2-1 6-2 4-6-1-19-7-11-3-7-1h-28l-16 4-16 8-11 8-8 9-6 10-3 11-1 7-5 4-7-1-11-3-8-1h-27l-15 4-11 6-11 9-10 13-8 16-3 10-2 11-3 4-18-3h-22l-16 4-14 7-9 7-8 7-8 11-7 14-3 10-1 7v12l3 15 3 8v6l-9 8-8 7-6 8-8 14-5 15-1 9v16l2 12 5 13 6 10 10 10 10 6 11 5 16 2 5 5 1 4-3 5-1 6v19l5 12 8 11 5 6-1 4-5 4-5-1-8-8-6-9-5-11-2-12v-17l1-6-8-1-13-5-11-6-10-9-8-9-8-16-4-15-1-8v-17l3-17 4-12 7-13 9-12 11-11 1-5-3-16v-21l4-17 6-14 8-11 6-7 11-9 14-9 12-5 18-4h23l7 1 7-19 8-15 9-10 6-7 11-8 14-7 14-4 8-1h20l22 3 3-11 6-11 9-11 11-9 14-8 14-6z"
          fill="#FCFCFC"/>
    <path transform="translate(772,216)"
          d="m0 0 20 1 15 3 16 6 12 7 14 11 2 1 1-3 15-9 15-6 15-3h25l16 3 21 8 15 8 13 10 10 10v3l5-3 14-3 7-1h25l17 3 16 6 13 7 14 11 11 11 11 15 10 18 8 19 2 9-5 4h-6l-3-4-8-20-7-13-8-12-9-11-7-7-14-10-14-7-14-4-7-1h-25l-20 4-10 3-9-11-2-1v-2l-4-2-8-7-16-9-11-5-13-4-18-2-16 1-15 4-16 8-13 10-3 3-5-1-14-15-8-6-10-5-13-4-16-2h-16l-20 4-16 6-17 9-14 10-13 11-7 6-5-1-4-3-15-5-12-2h-21l-14 3-16 8-8 7-3 1-2 4-9 12-7 12-6 14-6 1-4-2-1-7 5-13 8-15 8-10 5-5 10-9 16-9 12-4 9-2 9-1h11l21 4 15 6h3l6-7 15-11 15-9 16-8 18-6 11-2z"
          fill="#FCFCFC"/>
    <path transform="translate(1228,362)"
          d="m0 0h26l21 3 20 6 17 8 10 7 11 9 7 7 10 13 9 15 8 18 5 20 3 21 16 1 15 4 12 5 12 8 12 11 9 12 8 16 4 11 1 7v28l-4 16-3 10 11 7 12 11 7 8 8 13 4 10 3 14v23l-4 15-7 14-8 10-9 9-13 8-3 2 1 6 3 9 2 14-1 13-4 13-9 14-10 11-9 6-4 2h-4v-12l9-7 10-13 7-14 1-4v-13l-4-15-5-10v-6l5-4 15-8 10-8 8-9 6-12 3-10 1-8v-12l-3-14-8-16-11-12-8-7-14-9-5-5 2-7 5-10 4-17v-21l-3-13-7-14-9-12-10-10-12-8-14-5-4-1h-28l-3-5v-9l-3-22-5-16-8-18-9-14-9-11-9-9-15-10-16-7-13-4-19-3h-34l-7 1h-9l-2-3v-6l4-3 10-2z"
          fill="#FCFCFC"/>

    <path transform="translate(838,652)"
          d="m0 0h25l12 3 16 8 6 5 5 5 7-4 12-4 18-2 16 2 12 5 11 6 13 11 9 10 8 13 5 8 15-1 14 2 12 5 11 8 9 13 4 10 1 4v11l-4 3-4 1-3-4-6-18-7-10-9-7-9-3h-19l-14 3-3-5-5-13-6-10-9-10-12-10-14-7-9-2h-17l-15 4-14 7h-4l-9-11-9-6-11-5-6-1h-19l-16 4-10 5-11 10-6-1-8-5-14-5-13-3-19-1-15 3-14 7-12 11-7 9-3 3-6-1-8-5-11-3h-11l-17 5-12 8-5 7-4 12-5 1h-8l1-10 5-12 8-9 14-9 14-5 4-1h21l8 2 10 4 1-4 8-9 10-7 12-6 9-3 6-1h27l14 3 15 5 9 4 2-3h2v-2l16-8z"
          fill="#FCFCFC"/>

    <path transform="translate(844,715)"
          d="m0 0 17 1 12 4 11 8 7 10 2 6v17l-3 6-5 5-5 3-8 2h-26l-18-3-12-4-10-7-5-8-2-6v-8l3-10 4-5 10-6 9-3z"
          fill="#FCFCFC"/>

    <path transform="translate(708,567)"
          d="m0 0h12l10 3 9 6 6 9 2 6v17l-5 12-8 8-8 4-3 1h-15l-11-4-9-8-5-9-2-7v-8l2-9 5-9 9-8z" fill="#FCFCFC"/>
    <path transform="translate(979,581)"
          d="m0 0h16l10 4 8 7 6 10 1 4v15l-4 11-7 8-6 4-6 2h-18l-9-3-10-9-4-6-2-8v-11l3-10 4-6 5-5 7-5z"
          fill="#FCFCFC"/>
    <path transform="translate(1565,322)" d="m0 0h6l3 3 1 7-3 3-36 6-73 11-23 3-4-2-1-8 5-3 56-9 64-10z"
          fill="#FCFCFC"/>
    <path transform="translate(1478,144)"
          d="m0 0 5 3 3 3-1 4-11 11-8 7-12 11-8 7-10 9-8 7-20 18-11 9-4 1-6-6 1-4 10-10 8-7 13-12 8-7h2v-2l8-7 10-9 11-9 15-14z"
          fill="#FCFCFC"/>
    <path transform="translate(844,715)"
          d="m0 0 17 1 12 4 11 8 7 10 2 6v17l-3 6-5 5-5 3-4 1h-8l4-1v-2l-2-1 5-3 4-4 2-3h2l1-12-3-3-2-10-9-9-9-3-12-1h-24v2l-9 4h-3l-3 11 2 13 4 6 10 6 9 4v2l5 2v1h-8l-16-5-10-7-5-8-2-6v-8l3-10 4-5 10-6 9-3z"
          fill="#FCFCFC"/>
    <path transform="translate(708,567)"
          d="m0 0h12l10 3 9 6 6 9 2 6v17l-5 12-8 8-8 4-5-1-2-4 3-3 8-6h2l1-4 3-8v-12l-4-9-4-4v-2h-3v-2h-21l-1 2-5 2-4 4-3 12 1 10 7 14 14 7v3l8 1v1h-13l-11-4-9-8-5-9-2-7v-8l2-9 5-9 9-8z"
          fill="#FCFCFC"/>
    <path transform="translate(1304,35)" d="m0 0 6 1v2l3 1-1 9-11 31-20 58-5 10-1 1-8-1-1-1v-7l12-36 21-62z"
          fill="#FCFCFC"/>

    <path transform="translate(1103,31)" d="m0 0h7l3 5 9 60 5 34v6l-5 2h-5l-3-5-12-75-2-14v-11z" fill="#FCFCFC"/>
</svg>
